<?xml version="1.0" encoding="UTF-8" standalone="no"?>
<svg
   width="290"
   height="164.99998"
   id="screenshot-b299a173-0086-80f4-8004-50105023676b"
   viewBox="-46 -60 290 164.99998"
   fill="none"
   version="1.1"
   sodipodi:docname="nametag_background.svg"
   inkscape:export-filename="nametag.svg"
   inkscape:export-xdpi="96"
   inkscape:export-ydpi="96"
   xmlns:inkscape="http://www.inkscape.org/namespaces/inkscape"
   xmlns:sodipodi="http://sodipodi.sourceforge.net/DTD/sodipodi-0.dtd"
   xmlns="http://www.w3.org/2000/svg"
   xmlns:svg="http://www.w3.org/2000/svg">
  <defs
     id="defs15">
    <linearGradient
       id="swatch42"
       inkscape:swatch="solid">
      <stop
         style="stop-color:#000000;stop-opacity:1;"
         offset="0"
         id="stop42" />
    </linearGradient>
  </defs>
  <sodipodi:namedview
     id="namedview14"
     pagecolor="#ffffff"
     bordercolor="#000000"
     borderopacity="0.25"
     inkscape:showpageshadow="2"
     inkscape:pageopacity="0.0"
     inkscape:pagecheckerboard="0"
     inkscape:deskcolor="#d1d1d1" />
  <style
     id="style1">@font-face{font-family:'Pacifico';font-style:normal;font-weight:400;font-display:block;src:url(https://design.penpot.app/internal/gfonts/font/pacifico/v22/FwZY7-Qmy14u9lezJ-6K6MmTpA.woff2) format('woff2');unicode-range:U+0460-052F, U+1C80-1C88, U+20B4, U+2DE0-2DFF, U+A640-A69F, U+FE2E-FE2F}@font-face{font-family:'Pacifico';font-style:normal;font-weight:400;font-display:block;src:url(https://design.penpot.app/internal/gfonts/font/pacifico/v22/FwZY7-Qmy14u9lezJ-6D6MmTpA.woff2) format('woff2');unicode-range:U+0301, U+0400-045F, U+0490-0491, U+04B0-04B1, U+2116}@font-face{font-family:'Pacifico';font-style:normal;font-weight:400;font-display:block;src:url(https://design.penpot.app/internal/gfonts/font/pacifico/v22/FwZY7-Qmy14u9lezJ-6I6MmTpA.woff2) format('woff2');unicode-range:U+0102-0103, U+0110-0111, U+0128-0129, U+0168-0169, U+01A0-01A1, U+01AF-01B0, U+0300-0301, U+0303-0304, U+0308-0309, U+0323, U+0329, U+1EA0-1EF9, U+20AB}@font-face{font-family:'Pacifico';font-style:normal;font-weight:400;font-display:block;src:url(https://design.penpot.app/internal/gfonts/font/pacifico/v22/FwZY7-Qmy14u9lezJ-6J6MmTpA.woff2) format('woff2');unicode-range:U+0100-02AF, U+0304, U+0308, U+0329, U+1E00-1E9F, U+1EF2-1EFF, U+2020, U+20A0-20AB, U+20AD-20C0, U+2113, U+2C60-2C7F, U+A720-A7FF}@font-face{font-family:'Pacifico';font-style:normal;font-weight:400;font-display:block;src:url(https://design.penpot.app/internal/gfonts/font/pacifico/v22/FwZY7-Qmy14u9lezJ-6H6Mk.woff2) format('woff2');unicode-range:U+0000-00FF, U+0131, U+0152-0153, U+02BB-02BC, U+02C6, U+02DA, U+02DC, U+0304, U+0308, U+0329, U+2000-206F, U+2074, U+20AC, U+2122, U+2191, U+2193, U+2212, U+2215, U+FEFF, U+FFFD}@font-face{font-family:'Noto Sans';font-style:normal;font-weight:900;font-stretch:100%;font-display:block;src:url(https://design.penpot.app/internal/gfonts/font/notosans/v36/o-0mIpQlx3QUlC5A4PNB6Ryti20_6n1iPHjcz6L1SoM-jCpoiyBUBO9X6VLKzA.woff2) format('woff2');unicode-range:U+0460-052F, U+1C80-1C88, U+20B4, U+2DE0-2DFF, U+A640-A69F, U+FE2E-FE2F}@font-face{font-family:'Noto Sans';font-style:normal;font-weight:900;font-stretch:100%;font-display:block;src:url(https://design.penpot.app/internal/gfonts/font/notosans/v36/o-0mIpQlx3QUlC5A4PNB6Ryti20_6n1iPHjcz6L1SoM-jCpoiyBUBO9e6VLKzA.woff2) format('woff2');unicode-range:U+0301, U+0400-045F, U+0490-0491, U+04B0-04B1, U+2116}@font-face{font-family:'Noto Sans';font-style:normal;font-weight:900;font-stretch:100%;font-display:block;src:url(https://design.penpot.app/internal/gfonts/font/notosans/v36/o-0mIpQlx3QUlC5A4PNB6Ryti20_6n1iPHjcz6L1SoM-jCpoiyBUBO9b6VLKzA.woff2) format('woff2');unicode-range:U+0900-097F, U+1CD0-1CF9, U+200C-200D, U+20A8, U+20B9, U+20F0, U+25CC, U+A830-A839, U+A8E0-A8FF, U+11B00-11B09}@font-face{font-family:'Noto Sans';font-style:normal;font-weight:900;font-stretch:100%;font-display:block;src:url(https://design.penpot.app/internal/gfonts/font/notosans/v36/o-0mIpQlx3QUlC5A4PNB6Ryti20_6n1iPHjcz6L1SoM-jCpoiyBUBO9W6VLKzA.woff2) format('woff2');unicode-range:U+1F00-1FFF}@font-face{font-family:'Noto Sans';font-style:normal;font-weight:900;font-stretch:100%;font-display:block;src:url(https://design.penpot.app/internal/gfonts/font/notosans/v36/o-0mIpQlx3QUlC5A4PNB6Ryti20_6n1iPHjcz6L1SoM-jCpoiyBUBO9Z6VLKzA.woff2) format('woff2');unicode-range:U+0370-0377, U+037A-037F, U+0384-038A, U+038C, U+038E-03A1, U+03A3-03FF}@font-face{font-family:'Noto Sans';font-style:normal;font-weight:900;font-stretch:100%;font-display:block;src:url(https://design.penpot.app/internal/gfonts/font/notosans/v36/o-0mIpQlx3QUlC5A4PNB6Ryti20_6n1iPHjcz6L1SoM-jCpoiyBUBO9V6VLKzA.woff2) format('woff2');unicode-range:U+0102-0103, U+0110-0111, U+0128-0129, U+0168-0169, U+01A0-01A1, U+01AF-01B0, U+0300-0301, U+0303-0304, U+0308-0309, U+0323, U+0329, U+1EA0-1EF9, U+20AB}@font-face{font-family:'Noto Sans';font-style:normal;font-weight:900;font-stretch:100%;font-display:block;src:url(https://design.penpot.app/internal/gfonts/font/notosans/v36/o-0mIpQlx3QUlC5A4PNB6Ryti20_6n1iPHjcz6L1SoM-jCpoiyBUBO9U6VLKzA.woff2) format('woff2');unicode-range:U+0100-02AF, U+0304, U+0308, U+0329, U+1E00-1E9F, U+1EF2-1EFF, U+2020, U+20A0-20AB, U+20AD-20C0, U+2113, U+2C60-2C7F, U+A720-A7FF}@font-face{font-family:'Noto Sans';font-style:normal;font-weight:900;font-stretch:100%;font-display:block;src:url(https://design.penpot.app/internal/gfonts/font/notosans/v36/o-0mIpQlx3QUlC5A4PNB6Ryti20_6n1iPHjcz6L1SoM-jCpoiyBUBO9a6VI.woff2) format('woff2');unicode-range:U+0000-00FF, U+0131, U+0152-0153, U+02BB-02BC, U+02C6, U+02DA, U+02DC, U+0304, U+0308, U+0329, U+2000-206F, U+2074, U+20AC, U+2122, U+2191, U+2193, U+2212, U+2215, U+FEFF, U+FFFD}</style>
  <g
     id="shape-b299a173-0086-80f4-8004-50105023676b"
     filter="url(#filter-render-1)"
     transform="translate(-41,-55)"
     inkscape:export-filename="full_nametag.svg"
     inkscape:export-xdpi="96"
     inkscape:export-ydpi="96"
     inkscape:label="shape-b299a173-0086-80f4-8004-50105023676b">
    <defs
       id="defs9">
      <filter
         id="filter-render-1"
         x="-0.018115942"
         y="-0.033112583"
         width="1.0507246"
         height="1.0927152"
         filterUnits="objectBoundingBox"
         color-interpolation-filters="sRGB">
        <feFlood
           flood-opacity="0"
           result="BackgroundImageFix"
           id="feFlood1" />
        <feColorMatrix
           in="SourceAlpha"
           values="0 0 0 0 0 0 0 0 0 0 0 0 0 0 0 0 0 0 127 0"
           id="feColorMatrix1" />
        <feMorphology
           radius="1"
           operator="dilate"
           in="SourceAlpha"
           result="filter_b299a173-0086-80f4-8004-5012a408e336"
           id="feMorphology1" />
        <feOffset
           dx="4"
           dy="4"
           id="feOffset1" />
        <feGaussianBlur
           stdDeviation="1"
           id="feGaussianBlur1" />
        <feColorMatrix
           values="0 0 0 0 0 0 0 0 0 0 0 0 0 0 0 0 0 0 0.2 0"
           id="feColorMatrix2" />
        <feBlend
           in2="BackgroundImageFix"
           result="filter_b299a173-0086-80f4-8004-5012a408e336"
           id="feBlend2"
           mode="normal" />
        <feColorMatrix
           in="SourceAlpha"
           values="0 0 0 0 0 0 0 0 0 0 0 0 0 0 0 0 0 0 127 0"
           id="feColorMatrix3" />
        <feMorphology
           radius="4"
           operator="dilate"
           in="SourceAlpha"
           result="filter_b299a173-0086-80f4-8004-50126a32b759"
           id="feMorphology3" />
        <feOffset
           id="feOffset3" />
        <feGaussianBlur
           id="feGaussianBlur3" />
        <feColorMatrix
           values="0 0 0 0 1 0 0 0 0 1 0 0 0 0 1 0 0 0 1 0"
           id="feColorMatrix4" />
        <feBlend
           in2="filter_b299a173-0086-80f4-8004-5012a408e336"
           result="filter_b299a173-0086-80f4-8004-50126a32b759"
           id="feBlend4"
           mode="normal" />
        <feBlend
           in="SourceGraphic"
           in2="filter_b299a173-0086-80f4-8004-50126a32b759"
           result="shape"
           id="feBlend5"
           mode="normal" />
      </filter>
    </defs>
    <g
       class="fills"
       id="fills-b299a173-0086-80f4-8004-50105023676b">
      <rect
         rx="0"
         ry="0"
         width="276"
         height="151"
         class="frame-background"
         id="rect9"
         inkscape:label="rect9"
         x="0"
         y="0" />
    </g>
    <g
       class="frame-children"
       id="g14"
       inkscape:label="g14">
      <g
         id="g15"
         inkscape:export-filename="nametag_background.svg"
         inkscape:export-xdpi="96"
         inkscape:export-ydpi="96">
        <g
           id="shape-b299a173-0086-80f4-8004-500f3d06899a"
           sodipodi:insensitive="true"
           style="display:inline">
          <rect
             rx="10"
             ry="10"
             width="276"
             height="151"
             style="display:inline;fill:#ffffff;fill-opacity:1"
             class="fills"
             id="fills-b299a173-0086-80f4-8004-500f3d06899a"
             x="0"
             y="0" />
        </g>
        <g
           id="shape-b299a173-0086-80f4-8004-5011193d1457"
           style="display:inline">
          <path
             d="m 276,131 v 10 c 0,5.519 -4.481,10 -10,10 H 10 C 4.481,151 0,146.519 0,141 v -10 z"
             style="fill:#e45200;fill-opacity:1"
             class="fills"
             id="fills-b299a173-0086-80f4-8004-5011193d1457" />
        </g>
        <g
           id="shape-b299a173-0086-80f4-8004-500f9538b691"
           style="display:inline">
          <path
             d="M 0,41 V 10 C 0,4.481 4.481,0 10,0 h 256 c 5.519,0 10,4.481 10,10 v 31 z"
             style="fill:#e45200;fill-opacity:1"
             class="fills"
             id="fills-b299a173-0086-80f4-8004-500f9538b691" />
        </g>
      </g>
      <g
         transform="rotate(-4.9999998,138.50001,84.000013)"
         class="text-container"
         id="shape-3adabe2c-b9ca-8076-8004-4f4f0df5c6e4"
         style="display:inline">
        <defs
           id="defs10" />
      </g>
    </g>
  </g>
  <path
     style="font-weight:900;font-size:32px;font-family:'Noto Sans';-inkscape-font-specification:'Noto Sans Heavy';fill:#ffffff;fill-rule:evenodd;stroke-dasharray:2, 2;paint-order:fill markers stroke"
     d="m 7.4869849,-22.868317 h -6.208 v -9.312 h -7.168 v 9.312 h -6.2079999 v -22.848 h 6.2079999 v 8.48 h 7.168 v -8.48 h 6.208 z m 12.5440241,-18.016 q 3.872,0 6.112,2.016 2.24,2.016 2.24,6.08 v 2.72 h -10.912 q 0.064,1.376 1.024,2.272 0.992,0.896 2.848,0.896 1.664,0 3.04,-0.32 1.376,-0.32 2.848,-1.024 v 4.384 q -1.28,0.672 -2.816,0.992 -1.504,0.32 -3.808,0.32 -2.688,0 -4.8,-0.928 -2.08,-0.96 -3.296,-2.976 -1.216,-2.016 -1.216,-5.152 0,-3.2 1.088,-5.248 1.12,-2.048 3.072,-3.04 1.984,-0.992 4.576,-0.992 z m 0.224,4.16 q -1.088,0 -1.824,0.672 -0.704,0.672 -0.832,2.144 h 5.248 q -0.032,-1.184 -0.704,-1.984 -0.64,-0.832 -1.888,-0.832 z m 17.696001,13.856 h -6.112 v -24.32 h 6.112 z m 10.335998,0 h -6.112 v -24.32 h 6.112 z m 21.119999,-8.896 q 0,4.448 -2.368,6.848 -2.368,2.368 -6.496,2.368 -2.56,0 -4.544,-1.056 -1.984,-1.088 -3.136,-3.136 -1.12,-2.08 -1.12,-5.024 0,-4.384 2.368,-6.752 2.368,-2.368 6.528,-2.368 2.56,0 4.512,1.056 1.984,1.056 3.104,3.104 1.152,2.016 1.152,4.96 z m -11.456,0 q 0,2.272 0.608,3.488 0.608,1.184 2.048,1.184 1.408,0 1.984,-1.184 0.608,-1.216 0.608,-3.488 0,-2.272 -0.608,-3.424 -0.576,-1.152 -2.016,-1.152 -1.376,0 -2.016,1.152 -0.608,1.152 -0.608,3.424 z m 20.063972,0.832 h -5.152 l -0.8,-14.784 h 6.752 z m -5.888,5.472 q 0,-1.664 0.96,-2.336 0.992,-0.672 2.336,-0.672 1.312,0 2.272,0.672 0.96,0.672 0.96,2.336 0,1.568 -0.96,2.272 -0.96,0.704 -2.272,0.704 -1.344,0 -2.336,-0.704 -0.96,-0.704 -0.96,-2.272 z"
     id="text41"
     aria-label="Hello!" />
  <path
     d="m -19.762361,65.979087 q -1.626796,0.217643 -2.424392,-0.391723 -0.803477,-0.653325 -1.074061,-2.675835 -0.182349,-1.362986 -0.200891,-3.508716 0.01954,-2.195581 0.179062,-6.021057 0.219642,-7.055825 0.202696,-12.200318 -0.02781,-3.218597 -0.310162,-5.329036 -0.264701,-1.978536 -1.715627,-1.784422 -1.143154,0.152939 -2.61113,1.557704 -1.42989,1.354914 -3.023288,4.163845 -0.503782,0.917734 -1.251229,1.017732 -0.615545,0.08235 -1.175656,-0.42452 -0.522026,-0.556723 -0.622024,-1.30417 -0.09412,-0.703479 0.07557,-1.442252 0.207774,-0.788622 0.743759,-1.800173 1.716328,-3.228168 4.098647,-5.158049 2.376438,-1.973848 4.970518,-2.3209 2.41821,-0.323524 3.899145,1.044752 1.524903,1.362394 1.919013,4.308214 0.158821,1.187121 0.156627,2.843329 -0.0081,1.61224 -0.04866,2.64702 -0.04058,1.034781 -0.07557,1.442253 1.547339,-7.501985 4.292565,-10.733541 2.739344,-3.275525 6.4765785,-3.775515 2.8578851,-0.382346 4.755265,1.422514 1.94134625,1.798978 2.43545478,5.492245 0.19411398,1.450925 0.0866366,3.658272 1.38662342,-6.361623 3.97950952,-9.39378 2.592885,-3.032158 6.4180546,-3.543914 3.077723,-0.411757 4.969219,1.349136 1.935464,1.75501 2.411926,5.316375 0.258819,1.934568 0.05782,4.780987 L 16.83333,48.149055 q -0.145562,2.257195 0.0662,3.840023 0.247054,1.846637 1.205963,2.658188 1.002876,0.805668 2.541737,0.59979 1.450926,-0.194114 2.684508,-1.343746 1.27755,-1.155513 2.868156,-3.650791 0.445259,-0.686133 1.104771,-0.774367 0.571576,-0.07647 0.949936,0.409965 0.422326,0.480551 0.545854,1.403874 0.229406,1.714723 -0.470683,2.837745 -1.915726,3.075828 -3.987482,4.650872 -2.071755,1.575054 -4.533933,1.90446 -3.737235,0.49999 -6.141785,-1.416035 -2.410434,-1.959994 -2.910424,-5.697226 -0.347052,-2.594078 0.04936,-7.659607 l 0.682247,-8.28134 q 0.035,-0.407472 0.119541,-1.448134 0.08455,-1.040664 0.0988,-1.937659 0.0084,-0.940964 -0.109269,-1.820313 -0.205879,-1.538861 -0.921422,-2.203957 -0.6774576,-0.714945 -1.7766441,-0.567889 -2.0664704,0.276466 -3.9939613,3.264357 -1.8894067,2.938043 -3.1323632,9.369951 -1.19898865,6.42603 -1.1564227,16.445326 0.0451625,2.679222 -0.62272417,3.708426 -0.62980213,0.979343 -2.34453343,1.208751 -1.4948939,0.199996 -2.2924894,-0.40937 -0.7536269,-0.615239 -1.0124463,-2.549813 -0.2411724,-1.802668 -0.1457577,-4.769218 0.089531,-3.010529 0.3075763,-7.067601 0.5990004,-10.910707 0.1872433,-13.988429 -0.2235254,-1.670764 -0.9889178,-2.373945 -0.721425,-0.709062 -1.9964816,-0.538477 -2.1544049,0.28823 -4.1113079,3.056284 -1.962784,2.724087 -3.325879,9.261581 -1.325009,6.487645 -1.358315,17.277911 -0.0078,2.283517 -0.505676,3.245223 -0.453933,0.955815 -2.168664,1.185222 z m 54.385275,-6.291409 q -2.286308,0.305876 -3.658571,-0.584639 -1.328295,-0.896398 -1.504763,-2.215426 -0.152937,-1.143145 0.570682,-2.090294 0.723619,-0.94714 2.350415,-1.164783 0.571577,-0.07647 1.33667,-0.04457 0.803176,-0.01796 1.204768,-0.02692 -0.196906,-1.137273 -0.815839,-2.083818 -0.574966,-0.952428 -1.401972,-1.781626 -0.83289,-0.873175 -1.542549,-1.494296 -1.01594,2.776427 -2.149524,4.673509 -1.089616,1.891199 -2.466566,3.641819 -0.685535,0.89729 -1.564884,1.014934 -0.70348,0.09412 -1.207859,-0.330702 -0.510261,-0.468787 -0.610259,-1.216227 -0.117645,-0.879356 0.397902,-1.709148 l 0.477461,-0.779951 q 2.018218,-3.313315 2.990488,-5.412582 0.620829,-1.38094 1.176953,-3.245521 0.600093,-1.870453 1.513241,-5.08068 0.576564,-2.046327 3.214612,-2.399261 1.23109,-0.164703 1.744142,-0.0096 0.513054,0.155136 0.577758,0.638777 0.03529,0.2638 -0.06411,0.858906 -0.0994,0.595107 -0.330703,1.20786 -0.579655,1.688708 -0.432598,2.787894 0.08823,0.659514 0.633789,1.39211 0.589523,0.726704 1.715627,1.784418 1.654013,1.658405 2.53396,2.883307 0.918032,1.175062 1.12391,2.713921 0.247055,1.846637 -0.408769,3.635046 -0.617739,1.738558 -2.021309,2.955687 -1.403569,1.217129 -3.382105,1.48183 z m 13.36859,-2.773129 q -1.934568,0.258818 -3.086994,-0.661109 -1.108457,-0.925809 -1.337865,-2.640541 -0.264701,-1.978532 0.675665,-3.312711 0.984333,-1.340061 3.006836,-1.610644 1.934569,-0.258819 3.031262,0.579053 1.134779,0.788022 1.381833,2.634659 0.270583,2.0225 -0.707868,3.40653 -0.984334,1.340062 -2.962869,1.604763 z m 62.103876,-18.51266 q 0.57157,-0.07647 0.94994,0.409964 0.42232,0.480552 0.54585,1.403875 0.22941,1.714722 -0.47069,2.837746 -1.76926,2.832457 -3.73544,4.527641 -1.97205,1.651226 -4.91788,2.045337 -3.253588,0.435286 -5.572994,-1.178854 -2.325286,-1.658099 -4.669122,-5.461937 -1.707245,-2.725379 -2.774833,-4.014697 -1.029491,-1.339161 -1.941347,-1.798975 -0.917728,-0.503784 -2.210435,-0.465103 l -0.04836,3.318296 q -0.08215,6.410878 -2.393585,9.539646 -2.267474,3.122886 -6.92802,3.746403 -3.033756,0.405875 -5.602114,-0.727416 -2.530272,-1.183132 -3.759466,-3.345915 -0.413651,-0.750233 -0.537179,-1.673557 -0.176467,-1.319018 0.309668,-2.368651 0.486134,-1.049643 1.453419,-1.179052 0.571576,-0.07647 1.00846,0.178368 0.431,0.21086 0.876856,0.867284 1.704162,2.36776 2.850704,3.243718 1.190512,0.870086 2.729373,0.664208 1.758701,-0.23529 2.778032,-1.982821 1.057406,-1.79738 1.137965,-5.209495 l 0.05673,-4.259266 -0.703483,0.09412 q -1.01125,0.135291 -1.659296,-0.359817 -0.648047,-0.495108 -0.783338,-1.506358 -0.152939,-1.143155 0.330405,-1.879138 0.52143,-0.785824 1.400786,-0.90347 l 1.450922,-0.194113 q 0.01954,-2.195584 0.03968,-3.048613 l 0.03949,-10.07503 q -1.160801,0.02104 -2.172051,0.156328 -3.737243,0.499992 -5.495339,2.077834 -1.763985,1.533875 -1.440461,3.952085 0.147056,1.099187 0.461009,1.773256 0.352039,0.624218 0.859508,1.406659 0.222933,0.32821 0.281756,0.767885 0.129409,0.967284 -0.693914,1.838259 -0.785234,0.82112 -1.884421,0.968176 -1.406958,0.188232 -2.231172,-0.95462 -1.630783,-2.153807 -1.9896,-4.835822 -0.370581,-2.769951 0.818435,-5.256255 1.232984,-2.492187 4.128357,-4.266935 2.889489,-1.818716 7.41814,-2.424587 1.978532,-0.2647 3.634739,-0.262506 1.700175,-0.0037 3.761068,0.347155 2.242639,0.371282 2.483811,2.173948 0.323523,2.41821 -1.742945,2.694675 l -0.132409,12.056657 q 5.0736,-1.215831 7.765596,-5.514375 2.730072,-4.34839 3.990375,-11.319674 0.231002,-1.284029 1.066082,-2.067067 0.879058,-0.788923 2.329978,-0.983036 1.23109,-0.164703 1.96707,0.31864 0.77406,0.433494 0.90936,1.444745 0.0412,0.307773 -0.0406,1.034782 -1.2278,7.548744 -4.746187,12.360635 -3.518401,4.81189 -8.166588,6.865901 1.723704,0.172179 2.884803,0.822424 1.205066,0.644353 2.111338,1.731477 0.900379,1.043158 2.144136,2.980216 1.751214,2.719506 3.103038,3.791777 1.34594,1.028292 2.92877,0.816531 1.40696,-0.188231 2.55849,-1.28213 1.14565,-1.137867 2.77434,-3.682995 0.44525,-0.686133 1.10477,-0.774367 z m 1.61185,-14.044758 q -1.84663,0.247053 -2.88172,-0.464801 -1.04095,-0.755822 -1.24683,-2.294684 -0.20588,-1.538861 0.84595,-2.708934 1.08992,-1.219922 2.89258,-1.461093 1.6268,-0.217645 2.74393,0.438479 1.11713,0.656123 1.31125,2.107049 0.23529,1.758698 -0.76669,2.966856 -1.00787,1.164191 -2.89847,1.417128 z m 2.80703,23.657585 q -2.85789,0.382346 -4.44749,-1.463688 -1.54564,-1.851924 -1.9927,-5.193452 -0.2647,-1.978532 -0.19281,-5.120955 0.10997,-3.192284 0.54257,-5.980179 0.20747,-1.459894 0.7964,-2.075737 0.58893,-0.615843 2.03985,-0.809957 2.24234,-0.299994 2.44234,1.194896 0.14705,1.099187 -0.15305,5.211992 -0.40817,4.977593 -0.17876,6.692325 0.17646,1.319018 0.62233,1.975442 0.44585,0.656424 1.28123,0.544661 0.79141,-0.10588 1.83148,-1.363887 1.04007,-1.258007 2.70096,-3.896954 0.44526,-0.686133 1.10477,-0.774367 0.57158,-0.07647 0.94993,0.409965 0.42233,0.480551 0.54586,1.403874 0.23529,1.758691 -0.47069,2.837746 -3.64102,5.902402 -7.42222,6.408275 z m 23.67636,-13.371585 q 0.57157,-0.07647 0.94993,0.409965 0.42232,0.480552 0.54585,1.403875 0.23529,1.758691 -0.47068,2.837745 -1.36209,2.196174 -4.12836,4.266932 -2.72229,2.064873 -6.10778,2.517806 -4.61659,0.617636 -7.50199,-1.547335 -2.8854,-2.164981 -3.46774,-6.517759 -0.40587,-3.033751 0.52212,-5.798422 0.92213,-2.808632 2.95859,-4.647485 2.08043,-1.844736 4.93831,-2.227081 2.55012,-0.341171 4.29486,0.99181 1.73885,1.289012 2.0859,3.88309 0.40588,3.03376 -1.49838,5.526245 -1.86618,2.442635 -6.88375,4.411799 1.36977,1.875444 4.44749,1.463687 1.97853,-0.2647 4.30233,-1.962985 2.36188,-1.748124 3.90853,-4.23752 0.44525,-0.686133 1.10477,-0.774367 z m -11.93273,-4.892952 q -1.6268,0.217643 -2.51702,2.261177 -0.84624,2.037661 -0.48743,4.719675 l 0.0118,0.08792 q 2.51173,-0.962598 3.84192,-2.393685 1.3302,-1.431079 1.11255,-3.057885 -0.11176,-0.835377 -0.6601,-1.254313 -0.51027,-0.468786 -1.30168,-0.362906 z m 26.74177,-1.832259 q 0.96728,-0.129409 1.72091,0.485829 0.79172,0.565398 0.92701,1.576648 0.0765,0.571578 -0.0991,1.266386 -0.48583,1.72091 -1.61383,2.990682 -1.128,1.269773 -2.66686,1.475651 -1.23109,0.164703 -2.22808,-0.596998 -0.95304,-0.767592 -1.15303,-2.262483 -0.11177,-0.835377 -0.15326,-1.814431 -0.006,-0.715234 -0.0415,-0.979044 -0.0471,-0.351736 -0.24646,-0.504079 -0.15543,-0.158228 -0.37527,-0.128816 -0.61554,0.08235 -1.47076,1.718426 -0.86111,1.592097 -1.5928,4.151485 -0.7317,2.559378 -1.0324,5.329626 -0.20129,2.175151 -0.72272,2.960975 -0.52143,0.785834 -1.92838,0.974065 -1.67077,0.223526 -2.60954,-1.441059 -0.8948,-1.670466 -1.41244,-5.539603 -0.76469,-5.715765 0.17388,-11.077604 0.22513,-1.327991 1.02801,-2.017213 0.84096,-0.739072 2.46776,-0.956715 0.87935,-0.117646 1.2605,0.05513 0.38115,0.172784 0.4635,0.788329 0.0941,0.703473 -0.23599,3.253888 -0.20439,1.817524 -0.29172,3.171835 -0.0873,1.354322 -0.004,3.312413 0.94505,-3.975314 2.43008,-6.590723 1.48503,-2.615418 3.06446,-3.856075 1.57944,-1.240657 2.9864,-1.42889 1.27505,-0.170584 2.03456,0.488623 0.7976,0.609365 0.98583,2.01632 0.11177,0.835387 -0.0601,3.230369 z M 166.17359,42.088 q -2.28631,0.305877 -3.65856,-0.58464 -1.3283,-0.896398 -1.50477,-2.215425 -0.15294,-1.143145 0.57068,-2.090294 0.72362,-0.947141 2.35042,-1.164784 0.57158,-0.07647 1.33666,-0.04457 0.80318,-0.01797 1.20477,-0.02692 -0.19694,-1.137268 -0.81584,-2.083818 -0.57496,-0.952428 -1.40197,-1.781626 -0.83288,-0.873176 -1.54254,-1.494297 -1.01595,2.776428 -2.14953,4.673509 -1.08962,1.8912 -2.46657,3.64182 -0.68553,0.89729 -1.56488,1.014934 -0.70348,0.09412 -1.20786,-0.330702 -0.51026,-0.468787 -0.61026,-1.216228 -0.11764,-0.879355 0.39791,-1.709147 l 0.47746,-0.779952 q 2.01821,-3.313314 2.99048,-5.412581 0.57687,-1.375058 1.30577,-3.620786 0.72302,-2.289697 1.38443,-4.705415 0.57656,-2.046327 3.21461,-2.399262 1.23109,-0.164703 1.74414,-0.0096 0.51306,0.155137 0.57776,0.638778 0.0353,0.263799 -0.0641,0.858906 -0.0994,0.595106 -0.3307,1.207859 -0.57965,1.688708 -0.4326,2.787894 0.0882,0.659514 0.63379,1.392111 0.58952,0.726704 1.71562,1.784418 1.65402,1.658404 2.53396,2.883307 0.91804,1.175061 1.12392,2.713921 0.0588,0.439672 0.0768,1.242853 2.04265,-1.123607 4.46216,-5.117173 0.44525,-0.686132 1.10477,-0.774366 0.57158,-0.07647 0.94993,0.409964 0.42232,0.480552 0.54585,1.403876 0.22353,1.670764 -0.47068,2.837744 -1.83367,3.020094 -3.72088,4.301927 -1.84913,1.231984 -4.78318,1.71403 -1.55871,1.730181 -3.97692,2.053705 z m 28.73509,-15.032968 q 0.57157,-0.07647 0.94993,0.409965 0.42233,0.48055 0.54586,1.403874 0.23529,1.75869 -0.47069,2.837745 -1.57884,2.583204 -3.62118,4.3781 -2.04235,1.794885 -4.9442,2.183114 -8.96936,1.199977 -10.65756,-11.418685 -0.25882,-1.934574 -0.39163,-3.930751 l -1.71473,0.229408 q -1.31902,0.176466 -1.86736,-0.24247 -0.50439,-0.424818 -0.64556,-1.480036 -0.32941,-2.462183 1.64913,-2.726885 l 2.50614,-0.335287 q 0.10041,-4.936417 1.10398,-9.1433347 1.00358,-4.2069173 2.84034,-6.8693904 1.88073,-2.66835439 4.38688,-3.00364305 1.84664,-0.24705473 3.1195,1.23856726 1.27286,1.48562199 1.60227,3.94779969 0.91175,6.8149572 -4.12757,12.6359052 l 4.92436,-0.658811 q 0.70348,-0.09412 1.05242,0.172486 0.34896,0.266592 0.46072,1.101979 0.40587,3.03375 -4.56245,3.698444 l -5.36403,0.717633 q 0.2062,2.210135 0.3709,3.441227 0.61175,4.572619 1.91403,6.278072 1.34624,1.699581 3.67652,1.387822 1.89059,-0.252936 3.18858,-1.590204 1.29799,-1.33727 2.97064,-3.88828 0.44526,-0.686133 1.10478,-0.774367 z M 183.95561,3.7264529 q -0.65952,0.088234 -1.27137,1.870759 -0.57377,1.7326777 -0.9271,4.7784951 -0.31526,2.995968 -0.32244,6.622037 2.29409,-2.589392 3.19856,-5.529928 0.94256,-2.9903839 0.63668,-5.2766926 -0.34705,-2.5940795 -1.31433,-2.4646705 z m 28.23226,21.0168591 q 0.57158,-0.07647 0.94995,0.409964 0.42232,0.480551 0.54585,1.403875 0.23529,1.75869 -0.47069,2.837746 -1.3621,2.196174 -4.12835,4.26693 -2.7223,2.064875 -6.1078,2.517808 -4.61658,0.617635 -7.50198,-1.547335 -2.8854,-2.164981 -3.46774,-6.517759 -0.40588,-3.033751 0.52213,-5.798424 0.92212,-2.80863 2.95858,-4.647483 2.08043,-1.844737 4.93832,-2.227083 2.55011,-0.341169 4.29485,0.99181 1.73886,1.289013 2.08591,3.88309 0.40588,3.033761 -1.49838,5.526246 -1.86618,2.442635 -6.88376,4.4118 1.36977,1.875444 4.44749,1.463687 1.97854,-0.264702 4.30233,-1.962985 2.36189,-1.748125 3.90852,-4.23752 0.44526,-0.686133 1.10477,-0.774367 z M 200.25515,19.85036 q -1.6268,0.217643 -2.51702,2.261177 -0.84625,2.037661 -0.48743,4.719675 l 0.0118,0.08792 q 2.51174,-0.962599 3.84192,-2.393687 1.33019,-1.431077 1.11255,-3.057883 -0.11176,-0.835377 -0.66011,-1.254313 -0.51026,-0.468787 -1.30168,-0.362906 z m 14.06527,14.811658 q -1.67076,0.223525 -2.60952,-1.44106 -0.89481,-1.670467 -1.41244,-5.539604 -0.76469,-5.715764 0.17388,-11.077604 0.22512,-1.32799 1.028,-2.017213 0.84097,-0.739072 2.46776,-0.956715 0.87935,-0.117644 1.2605,0.05513 0.38115,0.172784 0.4635,0.78833 0.0941,0.703472 -0.23599,3.253888 -0.20438,1.817523 -0.29172,3.171835 -0.0873,1.354321 -0.004,3.312414 0.94506,-3.975316 2.43008,-6.590723 1.48502,-2.615419 3.06447,-3.856076 1.6234,-1.24654 3.07433,-1.440654 1.40696,-0.188233 2.21043,0.465093 0.84157,0.603484 1.0298,2.010438 0.15294,1.143155 0.0928,4.373524 -0.0809,2.740837 -0.0211,5.194335 0.0538,2.409539 0.44795,5.355363 0.22352,1.670764 -0.37996,2.512321 -0.5654,0.791716 -2.10426,0.997594 -1.45093,0.194115 -2.21043,-0.465103 -0.75951,-0.659207 -0.95951,-2.154107 -0.23529,-1.758691 -0.16091,-5.886053 0.057,-3.587988 -0.0724,-4.55527 -0.0941,-0.703482 -0.57776,-0.638777 -0.57158,0.07647 -1.4268,1.712544 -0.81714,1.586215 -1.59281,4.151486 -0.73169,2.559378 -1.03238,5.329625 -0.20718,2.131184 -0.76669,2.966857 -0.52143,0.785834 -1.88443,0.968184 z"
     id="text3"
     style="font-size:44.3592px;font-family:Pacifico;-inkscape-font-specification:Pacifico;fill:#000000;stroke-width:0.462075"
     aria-label="Ms. Kiersten"
     inkscape:transform-center-x="52.719203"
     inkscape:transform-center-y="6.3639745" />
  <path
     d="m 106.69976,-35.494716 q 1.984,0 2.98667,1.023998 1.02399,1.002665 1.02399,3.242661 v 7.594655 h -3.17866 v -6.805322 q 0,-2.51733 -1.74933,-2.51733 -1.25866,0 -1.79199,0.895999 -0.53334,0.895998 -0.53334,2.581329 v 5.845324 h -3.17866 v -6.805322 q 0,-2.51733 -1.749329,-2.51733 -1.322665,0 -1.834664,1.002665 -0.490666,0.981332 -0.490666,2.837329 v 5.482658 H 93.02512 v -11.647981 h 2.431996 l 0.426666,1.493331 h 0.170666 q 0.533333,-0.895999 1.450664,-1.301332 0.938666,-0.405332 1.941331,-0.405332 1.279997,0 2.175997,0.426666 0.896,0.405332 1.36533,1.279998 h 0.27733 q 0.53334,-0.895999 1.472,-1.301332 0.96,-0.405332 1.96266,-0.405332 z m 5.61067,0.213333 h 3.47733 l 2.19733,6.549323 q 0.17066,0.469332 0.256,0.981331 0.0853,0.490666 0.128,1.045332 h 0.064 q 0.064,-0.554666 0.17066,-1.045332 0.128,-0.511999 0.27734,-0.981331 l 2.15466,-6.549323 h 3.41333 l -4.92799,13.141312 q -0.66134,1.813331 -1.94133,2.709329 -1.25867,0.917332 -2.92267,0.917332 -0.53333,0 -0.93866,-0.064 -0.384,-0.04267 -0.68267,-0.106666 v -2.51733 q 0.23467,0.04267 0.55467,0.08533 0.34133,0.04267 0.704,0.04267 1.00266,0 1.57866,-0.618666 0.59733,-0.597332 0.87467,-1.450664 l 0.192,-0.575999 z m 25.96264,-0.213333 q 1.87733,0 3.00799,1.023998 1.13067,1.002665 1.13067,3.242661 v 7.594655 h -3.17866 v -6.805322 q 0,-1.258665 -0.448,-1.877331 -0.448,-0.639999 -1.42934,-0.639999 -1.45066,0 -1.98399,1.002665 -0.53333,0.981332 -0.53333,2.837329 v 5.482658 h -3.17867 v -11.647981 h 2.432 l 0.42667,1.493331 h 0.17066 q 0.55467,-0.895999 1.51467,-1.301332 0.98133,-0.405332 2.06933,-0.405332 z m 12.1813,-0.02133 q 2.34666,0 3.584,1.023999 1.25866,1.002665 1.25866,3.093328 v 7.765321 h -2.21866 l -0.61867,-1.578664 h -0.0853 q -0.74667,0.938665 -1.57867,1.365331 -0.83199,0.426666 -2.28266,0.426666 -1.55733,0 -2.58133,-0.895998 -1.024,-0.917332 -1.024,-2.794663 0,-1.855997 1.30133,-2.730662 1.30134,-0.895999 3.904,-0.981332 l 2.02666,-0.064 v -0.511999 q 0,-0.917332 -0.49066,-1.343998 -0.46934,-0.426666 -1.32267,-0.426666 -0.85333,0 -1.664,0.256 -0.81066,0.234666 -1.62133,0.597332 l -1.04533,-2.154663 q 0.93867,-0.490666 2.06933,-0.767999 1.152,-0.277333 2.38933,-0.277333 z m 0.448,6.52799 q -1.536,0.04267 -2.13333,0.554666 -0.59733,0.511999 -0.59733,1.343998 0,0.725332 0.42666,1.045331 0.42667,0.298666 1.10934,0.298666 1.02399,0 1.72799,-0.597332 0.704,-0.618666 0.704,-1.727997 v -0.959999 z m 21.33331,-6.506656 q 1.98399,0 2.98666,1.023998 1.024,1.002665 1.024,3.242661 v 7.594655 h -3.17867 v -6.805322 q 0,-2.51733 -1.74933,-2.51733 -1.25866,0 -1.79199,0.895999 -0.53334,0.895998 -0.53334,2.581329 v 5.845324 h -3.17866 v -6.805322 q 0,-2.51733 -1.74933,-2.51733 -1.32266,0 -1.83466,1.002665 -0.49067,0.981332 -0.49067,2.837329 v 5.482658 h -3.17866 v -11.647981 h 2.432 l 0.42666,1.493331 h 0.17067 q 0.53333,-0.895999 1.45066,-1.301332 0.93867,-0.405332 1.94133,-0.405332 1.28,0 2.176,0.426666 0.896,0.405332 1.36533,1.279998 h 0.27733 q 0.53334,-0.895999 1.472,-1.301332 0.96,-0.405332 1.96267,-0.405332 z m 12.07465,0 q 2.41066,0 3.81866,1.386664 1.40799,1.365331 1.40799,3.903994 v 1.535997 h -7.50932 q 0.0427,1.343998 0.78934,2.111997 0.76799,0.767999 2.11199,0.767999 1.13067,0 2.048,-0.213333 0.91733,-0.234666 1.89866,-0.703999 v 2.453329 q -0.85333,0.426666 -1.81333,0.618666 -0.93866,0.213333 -2.28266,0.213333 -1.74933,0 -3.09333,-0.639999 -1.344,-0.661332 -2.112,-1.983997 -0.768,-1.322664 -0.768,-3.327994 0,-2.047997 0.68267,-3.391995 0.704,-1.365331 1.94133,-2.047997 1.23733,-0.682665 2.88,-0.682665 z m 0.0213,2.261329 q -0.91733,0 -1.536,0.597333 -0.59733,0.597332 -0.704,1.855997 h 4.45866 q -0.0213,-1.066665 -0.55466,-1.749331 -0.53334,-0.703999 -1.664,-0.703999 z m 14.9333,-6.613323 q 0.704,0 1.216,0.341333 0.512,0.32 0.512,1.215998 0,0.874666 -0.512,1.215998 -0.512,0.341333 -1.216,0.341333 -0.72533,0 -1.23733,-0.341333 -0.49066,-0.341332 -0.49066,-1.215998 0,-0.895998 0.49066,-1.215998 0.512,-0.341333 1.23733,-0.341333 z m 1.57867,4.565327 v 11.647981 h -3.17866 v -11.647981 z m 11.45599,8.191987 q 0,1.770663 -1.25866,2.730662 -1.23733,0.938665 -3.712,0.938665 -1.216,0 -2.09066,-0.170666 -0.87467,-0.149333 -1.74933,-0.511999 v -2.623996 q 0.93866,0.426666 2.02666,0.703999 1.088,0.277332 1.92,0.277332 0.93866,0 1.32266,-0.277332 0.40534,-0.277333 0.40534,-0.725333 0,-0.298666 -0.17067,-0.533332 -0.14933,-0.234666 -0.68267,-0.533333 -0.53333,-0.298666 -1.66399,-0.767998 -1.088,-0.469333 -1.792,-0.917332 -0.704,-0.469333 -1.04533,-1.109332 -0.34133,-0.661332 -0.34133,-1.642664 0,-1.621331 1.25866,-2.431996 1.25866,-0.810665 3.34933,-0.810665 1.088,0 2.06933,0.213333 0.98133,0.213333 2.02666,0.703998 l -0.96,2.282663 q -0.85333,-0.362666 -1.62133,-0.597332 -0.768,-0.256 -1.55733,-0.256 -1.408,0 -1.408,0.767999 0,0.277333 0.17067,0.511999 0.192,0.213333 0.704,0.469333 0.53333,0.256 1.55733,0.682666 1.00267,0.405332 1.728,0.853332 0.72533,0.426666 1.10933,1.087998 0.40533,0.639999 0.40533,1.685331 z"
     id="text42"
     style="font-weight:bold;font-size:21.3333px;font-family:'Noto Sans';-inkscape-font-specification:'Noto Sans Bold';fill:#ffffff;fill-rule:evenodd;stroke-width:0.7;paint-order:fill markers stroke"
     aria-label="my name is" />
</svg>
